<svg width="46" height="45" viewBox="0 0 46 45" fill="none" xmlns="http://www.w3.org/2000/svg">
<path d="M35.2959 4.42969C34.7686 4.79004 34.6895 5.07129 34.6895 6.58301V7.91016H33.3887C32.2197 7.91016 32.0527 7.92773 31.7012 8.10352C31.2617 8.33203 30.9102 8.88574 30.9102 9.36035C30.9102 9.7207 31.2441 10.3623 31.5518 10.582C31.7715 10.749 31.9561 10.7666 33.2393 10.793L34.6807 10.8193L34.707 12.2607C34.7334 13.5439 34.751 13.7285 34.918 13.9482C35.1377 14.2559 35.7793 14.5898 36.1484 14.5898C36.5967 14.5898 37.1592 14.2383 37.3877 13.7988C37.5723 13.4561 37.5898 13.3066 37.5898 12.1113V10.8105H38.9082C40.0508 10.8105 40.2793 10.7842 40.5693 10.6348C41.5098 10.1602 41.5449 8.80664 40.6396 8.13867C40.4111 7.97168 40.2441 7.9541 38.9961 7.92773L37.5986 7.90137L37.5723 6.50391C37.5459 4.95703 37.502 4.83398 36.8867 4.41211C36.4736 4.13086 35.7266 4.13965 35.2959 4.42969Z" fill="#1856CD" fill-opacity="0.1"/>
<path d="M10.3428 6.0467C7.84668 6.26643 5.66699 8.08577 4.89355 10.5906L4.70898 11.2059V22.4735V33.7322L4.89355 34.3826C5.42969 36.1756 6.64258 37.6082 8.29492 38.3729C9.56934 38.9705 8.73438 38.9442 22.9814 38.9442C37.2637 38.9442 36.4287 38.9705 37.7207 38.3729C39.3555 37.6082 40.5596 36.1844 41.1133 34.3651C41.3506 33.5828 41.333 34.3914 41.3066 24.1522C41.2803 17.2088 41.2627 16.3475 41.1396 16.2244C40.9463 16.0311 40.6035 16.0487 39.9443 16.2947C38.6084 16.7957 36.7979 16.9451 35.3828 16.6727C33.3174 16.2596 31.2871 14.8797 30.0654 13.0428C28.958 11.3729 28.5273 9.5887 28.7295 7.48811C28.8262 6.45979 28.8174 6.39827 28.6592 6.24006C28.501 6.07307 28.2109 6.07307 19.5713 6.0467C14.667 6.02913 10.5098 6.02913 10.3428 6.0467Z" fill="#1856CD" fill-opacity="0.1"/>
<circle cx="15.0898" cy="16.7871" r="2.19727" fill="#1856CD"/>
<path d="M7.53125 32.959V30.498L11.9478 25.8158C12.7297 24.9869 14.0419 24.9677 14.8477 25.7735L16.5927 27.5185C16.9745 27.9002 17.5948 27.8954 17.9706 27.5077L26.9385 18.2551C27.7217 17.447 29.014 17.4341 29.8132 18.2263L38.4248 26.7627V32.959C38.4248 34.755 36.9689 36.2109 35.1729 36.2109H10.7832C8.9872 36.2109 7.53125 34.755 7.53125 32.959Z" fill="#1856CD"/>
</svg>
