<svg width="45" height="45" viewBox="0 0 45 45" fill="none" xmlns="http://www.w3.org/2000/svg">
<rect width="45" height="45" rx="10" fill="#1856CD" fill-opacity="0.1"/>
<path d="M26.7655 17.2235C26.7655 19.3027 25.08 20.9882 23.0008 20.9882C20.9216 20.9882 19.2361 19.3027 19.2361 17.2235C19.2361 15.1443 20.9216 13.4588 23.0008 13.4588C25.08 13.4588 26.7655 15.1443 26.7655 17.2235Z" fill="#1856CD" stroke="#1856CD" stroke-width="1.88235"/>
<path d="M30.5588 28.3064C30.5588 29.2822 29.9053 30.3197 28.5209 31.1628C27.1531 31.9958 25.2035 32.5416 23 32.5416C20.7965 32.5416 18.8469 31.9958 17.4791 31.1628C16.0947 30.3197 15.4412 29.2822 15.4412 28.3064C15.4412 27.3305 16.0947 26.293 17.4791 25.4499C18.8469 24.6169 20.7965 24.0711 23 24.0711C25.2035 24.0711 27.1531 24.6169 28.5209 25.4499C29.9053 26.293 30.5588 27.3305 30.5588 28.3064Z" fill="#1856CD" stroke="#1856CD" stroke-width="1.88235"/>
</svg>
