<svg width="35" height="35" viewBox="0 0 35 35" fill="none" xmlns="http://www.w3.org/2000/svg">
<g clip-path="url(#clip0_47_3493)">
<path d="M35 0H0V35H35V0Z" fill="white" fill-opacity="0.01"/>
<path d="M30.6243 2.9165H4.37435C3.56893 2.9165 2.91602 3.56942 2.91602 4.37484V30.6248C2.91602 31.4303 3.56893 32.0832 4.37435 32.0832H30.6243C31.4298 32.0832 32.0827 31.4303 32.0827 30.6248V4.37484C32.0827 3.56942 31.4298 2.9165 30.6243 2.9165Z" stroke="#1856CD" stroke-width="2.91667" stroke-linecap="round" stroke-linejoin="round"/>
<path d="M2.91602 10.2085H32.0827" stroke="#1856CD" stroke-width="2.91667" stroke-linecap="round" stroke-linejoin="round"/>
<path d="M32.084 8.021V16.771" stroke="#1856CD" stroke-width="2.91667" stroke-linecap="round" stroke-linejoin="round"/>
<path d="M8.75 16.0415H11.6667" stroke="#1856CD" stroke-width="2.91667" stroke-linecap="round" stroke-linejoin="round"/>
<path d="M16.041 16.0415H18.9577" stroke="#1856CD" stroke-width="2.91667" stroke-linecap="round" stroke-linejoin="round"/>
<path d="M23.334 16.0415H26.2507" stroke="#1856CD" stroke-width="2.91667" stroke-linecap="round" stroke-linejoin="round"/>
<path d="M8.75 21.146H11.6667" stroke="#1856CD" stroke-width="2.91667" stroke-linecap="round" stroke-linejoin="round"/>
<path d="M16.041 21.146H18.9577" stroke="#1856CD" stroke-width="2.91667" stroke-linecap="round" stroke-linejoin="round"/>
<path d="M23.334 21.146H26.2507" stroke="#1856CD" stroke-width="2.91667" stroke-linecap="round" stroke-linejoin="round"/>
<path d="M8.75 26.25H11.6667" stroke="#1856CD" stroke-width="2.91667" stroke-linecap="round" stroke-linejoin="round"/>
<path d="M16.041 26.25H18.9577" stroke="#1856CD" stroke-width="2.91667" stroke-linecap="round" stroke-linejoin="round"/>
<path d="M23.334 26.25H26.2507" stroke="#1856CD" stroke-width="2.91667" stroke-linecap="round" stroke-linejoin="round"/>
<path d="M2.91602 8.021V16.771" stroke="#1856CD" stroke-width="2.91667" stroke-linecap="round" stroke-linejoin="round"/>
</g>
<defs>
<clipPath id="clip0_47_3493">
<rect width="35" height="35" fill="white"/>
</clipPath>
</defs>
</svg>
