<svg width="25" height="25" viewBox="0 0 25 25" fill="none" xmlns="http://www.w3.org/2000/svg">
<path fill-rule="evenodd" clip-rule="evenodd" d="M11.9434 20.3073L7.61528 22.6852C7.03065 23.0064 6.30756 22.7715 6.0002 22.1605C5.87781 21.9172 5.83558 21.6386 5.88004 21.3677L6.70664 16.3313C6.77317 15.9259 6.64455 15.5122 6.36269 15.2251L2.86116 11.6583C2.38819 11.1766 2.37851 10.3853 2.83954 9.89106C3.02313 9.69424 3.26368 9.56615 3.52396 9.52663L8.36296 8.79183C8.75249 8.73268 9.08922 8.47702 9.26342 8.10816L11.4275 3.52592C11.7198 2.90697 12.4369 2.65284 13.0292 2.95831C13.2651 3.07995 13.456 3.27945 13.5724 3.52592L15.7364 8.10816C15.9106 8.47702 16.2474 8.73268 16.6369 8.79183L21.4759 9.52663C22.1295 9.62588 22.5824 10.2601 22.4874 10.9431C22.4496 11.2151 22.327 11.4665 22.1387 11.6583L18.6372 15.2251C18.3553 15.5122 18.2267 15.9259 18.2932 16.3313L19.1198 21.3677C19.2315 22.048 18.7942 22.6941 18.1433 22.8107C17.884 22.8572 17.6174 22.8131 17.3846 22.6852L13.0564 20.3073C12.708 20.1159 12.2918 20.1159 11.9434 20.3073Z" fill="#1856CD"/>
</svg>
