<svg width="16" height="16" viewBox="0 0 16 16" fill="none" xmlns="http://www.w3.org/2000/svg">
<path fill-rule="evenodd" clip-rule="evenodd" d="M3.99935 2.00143L4.00383 2.07918C4.03938 2.38523 4.28221 2.62806 4.58827 2.66361L4.66602 2.6681L13.3327 2.6681L13.3327 11.3348L13.3372 11.4125C13.3757 11.7441 13.6575 12.0014 13.9993 12.0014C14.3412 12.0014 14.623 11.7441 14.6615 11.4125L14.666 11.3348L14.666 2.00143L14.6615 1.92368C14.626 1.61763 14.3832 1.3748 14.0771 1.33925L13.9993 1.33476L4.66602 1.33476L4.58827 1.33925C4.28221 1.3748 4.03938 1.61763 4.00383 1.92368L3.99935 2.00143ZM1.3327 14.0019L1.33718 14.0797C1.37273 14.3858 1.61556 14.6286 1.92162 14.6641L1.99937 14.6686L11.3327 14.6686L11.4104 14.6641C11.691 14.6315 11.9184 14.4248 11.9818 14.1548L11.9949 14.0797L11.9994 14.0019L11.9994 4.66862L11.9949 4.59087C11.9593 4.28481 11.7165 4.04198 11.4104 4.00644L11.3327 4.00195L1.99937 4.00195L1.92162 4.00643C1.64107 4.03902 1.41364 4.24578 1.35031 4.51576L1.33718 4.59087L1.3327 4.66862L1.3327 14.0019ZM10.666 5.33476L2.66602 5.33476L2.66602 13.3348L10.666 13.3348L10.666 5.33476Z" fill="#1856CD"/>
</svg>
