<svg width="360" height="217" viewBox="0 0 360 217" fill="none" xmlns="http://www.w3.org/2000/svg">
<rect x="1" y="1" width="358" height="215" rx="11" fill="white"/>
<rect x="1" y="1" width="358" height="215" rx="11" stroke="#1856CD" stroke-width="2" stroke-dasharray="9 9"/>
<path d="M192.296 44.9297C191.769 45.29 191.689 45.5713 191.689 47.083V48.4102H190.389C189.22 48.4102 189.053 48.4277 188.701 48.6035C188.262 48.832 187.91 49.3857 187.91 49.8604C187.91 50.2207 188.244 50.8623 188.552 51.082C188.771 51.249 188.956 51.2666 190.239 51.293L191.681 51.3193L191.707 52.7607C191.733 54.0439 191.751 54.2285 191.918 54.4482C192.138 54.7559 192.779 55.0898 193.148 55.0898C193.597 55.0898 194.159 54.7383 194.388 54.2988C194.572 53.9561 194.59 53.8066 194.59 52.6113V51.3105H195.908C197.051 51.3105 197.279 51.2842 197.569 51.1348C198.51 50.6602 198.545 49.3066 197.64 48.6387C197.411 48.4717 197.244 48.4541 195.996 48.4277L194.599 48.4014L194.572 47.0039C194.546 45.457 194.502 45.334 193.887 44.9121C193.474 44.6309 192.727 44.6396 192.296 44.9297Z" fill="#1856CD" fill-opacity="0.1"/>
<path d="M167.343 46.5467C164.847 46.7664 162.667 48.5858 161.894 51.0906L161.709 51.7059V62.9735V74.2322L161.894 74.8826C162.43 76.6756 163.643 78.1082 165.295 78.8729C166.569 79.4705 165.734 79.4442 179.981 79.4442C194.264 79.4442 193.429 79.4705 194.721 78.8729C196.355 78.1082 197.56 76.6844 198.113 74.8651C198.351 74.0828 198.333 74.8914 198.307 64.6522C198.28 57.7088 198.263 56.8475 198.14 56.7244C197.946 56.5311 197.604 56.5487 196.944 56.7947C195.608 57.2957 193.798 57.4451 192.383 57.1727C190.317 56.7596 188.287 55.3797 187.065 53.5428C185.958 51.8729 185.527 50.0887 185.729 47.9881C185.826 46.9598 185.817 46.8983 185.659 46.7401C185.501 46.5731 185.211 46.5731 176.571 46.5467C171.667 46.5291 167.51 46.5291 167.343 46.5467Z" fill="#1856CD" fill-opacity="0.1"/>
<circle cx="172.09" cy="57.2871" r="2.19727" fill="#1856CD"/>
<path d="M164.531 73.459V70.998L168.948 66.3158C169.73 65.4869 171.042 65.4677 171.848 66.2735L173.593 68.0185C173.974 68.4002 174.595 68.3954 174.971 68.0077L183.939 58.7551C184.722 57.947 186.014 57.9341 186.813 58.7263L195.425 67.2627V73.459C195.425 75.255 193.969 76.7109 192.173 76.7109H167.783C165.987 76.7109 164.531 75.255 164.531 73.459Z" fill="#1856CD"/>
<path d="M121.351 117.312V113.011H122.118C122.379 112.792 122.624 112.479 122.851 112.074C123.078 111.669 123.271 111.121 123.43 110.432C123.589 109.742 123.699 108.858 123.76 107.778L124.033 102.864H131.209V113.011H132.527V117.295H130.845V114.5H123.033V117.312H121.351ZM124.186 113.011H129.527V104.375H125.624L125.442 107.778C125.393 108.6 125.311 109.339 125.197 109.994C125.088 110.65 124.946 111.229 124.771 111.733C124.601 112.233 124.406 112.659 124.186 113.011ZM137.99 114.676C137.172 114.676 136.458 114.489 135.848 114.114C135.238 113.739 134.765 113.214 134.428 112.54C134.09 111.866 133.922 111.078 133.922 110.176C133.922 109.271 134.09 108.479 134.428 107.801C134.765 107.123 135.238 106.597 135.848 106.222C136.458 105.847 137.172 105.659 137.99 105.659C138.808 105.659 139.522 105.847 140.132 106.222C140.742 106.597 141.215 107.123 141.553 107.801C141.89 108.479 142.058 109.271 142.058 110.176C142.058 111.078 141.89 111.866 141.553 112.54C141.215 113.214 140.742 113.739 140.132 114.114C139.522 114.489 138.808 114.676 137.99 114.676ZM137.996 113.25C138.526 113.25 138.965 113.11 139.314 112.83C139.662 112.549 139.92 112.176 140.087 111.71C140.257 111.244 140.342 110.731 140.342 110.17C140.342 109.614 140.257 109.102 140.087 108.636C139.92 108.167 139.662 107.79 139.314 107.506C138.965 107.222 138.526 107.08 137.996 107.08C137.462 107.08 137.018 107.222 136.666 107.506C136.318 107.79 136.058 108.167 135.888 108.636C135.721 109.102 135.638 109.614 135.638 110.17C135.638 110.731 135.721 111.244 135.888 111.71C136.058 112.176 136.318 112.549 136.666 112.83C137.018 113.11 137.462 113.25 137.996 113.25ZM150.688 102.523L151.392 103.597C151.131 103.835 150.833 104.006 150.5 104.108C150.17 104.206 149.79 104.269 149.358 104.295C148.926 104.318 148.432 104.339 147.875 104.358C147.246 104.377 146.729 104.513 146.324 104.767C145.919 105.017 145.606 105.388 145.386 105.881C145.17 106.369 145.03 106.983 144.966 107.722H145.074C145.358 107.18 145.752 106.775 146.256 106.506C146.763 106.237 147.333 106.102 147.966 106.102C148.67 106.102 149.297 106.263 149.847 106.585C150.396 106.907 150.828 107.379 151.142 108C151.46 108.617 151.619 109.373 151.619 110.267C151.619 111.172 151.453 111.955 151.119 112.614C150.79 113.273 150.324 113.782 149.722 114.142C149.123 114.498 148.417 114.676 147.602 114.676C146.788 114.676 146.078 114.492 145.472 114.125C144.869 113.754 144.402 113.205 144.068 112.477C143.739 111.75 143.574 110.852 143.574 109.784V108.92C143.574 106.924 143.93 105.422 144.642 104.415C145.354 103.407 146.419 102.89 147.835 102.864C148.294 102.852 148.703 102.85 149.062 102.858C149.422 102.862 149.737 102.845 150.006 102.807C150.278 102.765 150.506 102.67 150.688 102.523ZM147.608 113.25C148.081 113.25 148.489 113.131 148.83 112.892C149.174 112.65 149.439 112.307 149.625 111.864C149.811 111.42 149.903 110.898 149.903 110.295C149.903 109.705 149.811 109.203 149.625 108.79C149.439 108.377 149.174 108.062 148.83 107.847C148.485 107.627 148.072 107.517 147.591 107.517C147.235 107.517 146.917 107.58 146.636 107.705C146.356 107.826 146.116 108.006 145.915 108.244C145.718 108.483 145.564 108.775 145.455 109.119C145.348 109.46 145.292 109.852 145.284 110.295C145.284 111.197 145.491 111.915 145.903 112.449C146.32 112.983 146.888 113.25 147.608 113.25ZM156.057 114.693C155.504 114.693 155.004 114.591 154.557 114.386C154.11 114.178 153.756 113.877 153.494 113.483C153.237 113.089 153.108 112.606 153.108 112.034C153.108 111.542 153.203 111.136 153.392 110.818C153.581 110.5 153.837 110.248 154.159 110.062C154.481 109.877 154.841 109.737 155.239 109.642C155.636 109.547 156.042 109.475 156.455 109.426C156.977 109.366 157.402 109.316 157.727 109.278C158.053 109.237 158.29 109.17 158.438 109.08C158.585 108.989 158.659 108.841 158.659 108.636V108.597C158.659 108.1 158.519 107.716 158.239 107.443C157.962 107.17 157.549 107.034 157 107.034C156.428 107.034 155.977 107.161 155.648 107.415C155.322 107.665 155.097 107.943 154.972 108.25L153.375 107.886C153.564 107.356 153.841 106.928 154.205 106.602C154.572 106.273 154.994 106.034 155.472 105.886C155.949 105.735 156.451 105.659 156.977 105.659C157.326 105.659 157.695 105.701 158.085 105.784C158.479 105.864 158.847 106.011 159.188 106.227C159.532 106.443 159.814 106.752 160.034 107.153C160.254 107.551 160.364 108.068 160.364 108.705V114.5H158.705V113.307H158.636C158.527 113.527 158.362 113.742 158.142 113.955C157.922 114.167 157.64 114.343 157.295 114.483C156.951 114.623 156.538 114.693 156.057 114.693ZM156.426 113.33C156.896 113.33 157.297 113.237 157.631 113.051C157.968 112.866 158.223 112.623 158.398 112.324C158.576 112.021 158.665 111.697 158.665 111.352V110.227C158.604 110.288 158.487 110.345 158.312 110.398C158.142 110.447 157.947 110.491 157.727 110.528C157.508 110.562 157.294 110.595 157.085 110.625C156.877 110.652 156.703 110.674 156.562 110.693C156.233 110.735 155.932 110.805 155.659 110.903C155.39 111.002 155.174 111.144 155.011 111.33C154.852 111.511 154.773 111.754 154.773 112.057C154.773 112.477 154.928 112.795 155.239 113.011C155.549 113.223 155.945 113.33 156.426 113.33ZM162.626 114.5V105.773H166.246C167.231 105.773 168.011 105.983 168.587 106.403C169.162 106.82 169.45 107.386 169.45 108.102C169.45 108.614 169.287 109.019 168.962 109.318C168.636 109.617 168.204 109.818 167.666 109.92C168.056 109.966 168.414 110.083 168.74 110.273C169.066 110.458 169.327 110.708 169.524 111.023C169.725 111.337 169.825 111.712 169.825 112.148C169.825 112.61 169.706 113.019 169.467 113.375C169.229 113.727 168.882 114.004 168.428 114.205C167.977 114.402 167.433 114.5 166.797 114.5H162.626ZM164.223 113.08H166.797C167.217 113.08 167.547 112.979 167.786 112.778C168.024 112.578 168.143 112.305 168.143 111.96C168.143 111.555 168.024 111.237 167.786 111.006C167.547 110.771 167.217 110.653 166.797 110.653H164.223V113.08ZM164.223 109.409H166.263C166.581 109.409 166.854 109.364 167.081 109.273C167.312 109.182 167.488 109.053 167.609 108.886C167.734 108.716 167.797 108.515 167.797 108.284C167.797 107.947 167.659 107.684 167.382 107.494C167.106 107.305 166.727 107.21 166.246 107.21H164.223V109.409ZM172.967 108.773H175.501C176.57 108.773 177.392 109.038 177.967 109.568C178.543 110.098 178.831 110.782 178.831 111.619C178.831 112.165 178.702 112.655 178.445 113.091C178.187 113.527 177.81 113.871 177.314 114.125C176.818 114.375 176.214 114.5 175.501 114.5H171.689V105.773H173.354V113.034H175.501C175.99 113.034 176.392 112.907 176.706 112.653C177.02 112.396 177.178 112.068 177.178 111.67C177.178 111.25 177.02 110.907 176.706 110.642C176.392 110.373 175.99 110.239 175.501 110.239H172.967V108.773ZM179.341 107.239V105.773H186.705V107.239H183.858V114.5H182.199V107.239H179.341ZM191.857 114.676C190.997 114.676 190.256 114.492 189.635 114.125C189.018 113.754 188.54 113.233 188.203 112.562C187.87 111.888 187.703 111.098 187.703 110.193C187.703 109.299 187.87 108.511 188.203 107.83C188.54 107.148 189.01 106.616 189.612 106.233C190.218 105.85 190.927 105.659 191.737 105.659C192.23 105.659 192.707 105.741 193.169 105.903C193.631 106.066 194.046 106.322 194.413 106.67C194.781 107.019 195.071 107.472 195.283 108.028C195.495 108.581 195.601 109.254 195.601 110.045V110.648H188.663V109.375H193.936C193.936 108.928 193.845 108.532 193.663 108.188C193.482 107.839 193.226 107.564 192.896 107.364C192.571 107.163 192.188 107.062 191.749 107.062C191.271 107.062 190.855 107.18 190.499 107.415C190.146 107.646 189.874 107.949 189.68 108.324C189.491 108.695 189.396 109.098 189.396 109.534V110.528C189.396 111.112 189.499 111.608 189.703 112.017C189.911 112.426 190.201 112.739 190.572 112.955C190.944 113.167 191.377 113.273 191.874 113.273C192.196 113.273 192.489 113.227 192.754 113.136C193.019 113.042 193.249 112.902 193.442 112.716C193.635 112.53 193.783 112.301 193.885 112.028L195.493 112.318C195.364 112.792 195.133 113.206 194.8 113.562C194.47 113.915 194.055 114.189 193.555 114.386C193.059 114.58 192.493 114.676 191.857 114.676ZM205.476 117.472V102.864H207.175V117.472H205.476ZM205.476 114.676C204.858 114.676 204.296 114.57 203.788 114.358C203.281 114.142 202.843 113.835 202.476 113.438C202.108 113.04 201.824 112.564 201.624 112.011C201.427 111.458 201.328 110.847 201.328 110.176C201.328 109.498 201.427 108.883 201.624 108.33C201.824 107.777 202.108 107.301 202.476 106.903C202.843 106.506 203.281 106.199 203.788 105.983C204.296 105.767 204.858 105.659 205.476 105.659H205.896V114.676H205.476ZM205.476 113.244H205.714V107.091H205.476C205.067 107.091 204.711 107.174 204.408 107.341C204.105 107.504 203.853 107.729 203.652 108.017C203.451 108.301 203.3 108.629 203.197 109C203.099 109.371 203.05 109.763 203.05 110.176C203.05 110.729 203.139 111.239 203.317 111.705C203.495 112.167 203.764 112.54 204.124 112.824C204.483 113.104 204.934 113.244 205.476 113.244ZM207.175 114.676H206.749V105.659H207.175C207.792 105.659 208.355 105.767 208.862 105.983C209.37 106.199 209.805 106.506 210.169 106.903C210.536 107.301 210.819 107.777 211.016 108.33C211.216 108.883 211.317 109.498 211.317 110.176C211.317 110.847 211.216 111.458 211.016 112.011C210.819 112.564 210.536 113.04 210.169 113.438C209.805 113.835 209.37 114.142 208.862 114.358C208.355 114.57 207.792 114.676 207.175 114.676ZM207.175 113.244C207.584 113.244 207.94 113.165 208.243 113.006C208.546 112.843 208.798 112.619 208.999 112.335C209.199 112.047 209.349 111.72 209.447 111.352C209.546 110.981 209.595 110.589 209.595 110.176C209.595 109.627 209.506 109.119 209.328 108.653C209.154 108.184 208.887 107.807 208.527 107.523C208.167 107.235 207.716 107.091 207.175 107.091H206.93V113.244H207.175ZM216.881 114.676C216.063 114.676 215.348 114.489 214.739 114.114C214.129 113.739 213.655 113.214 213.318 112.54C212.981 111.866 212.812 111.078 212.812 110.176C212.812 109.271 212.981 108.479 213.318 107.801C213.655 107.123 214.129 106.597 214.739 106.222C215.348 105.847 216.063 105.659 216.881 105.659C217.699 105.659 218.413 105.847 219.023 106.222C219.633 106.597 220.106 107.123 220.443 107.801C220.78 108.479 220.949 109.271 220.949 110.176C220.949 111.078 220.78 111.866 220.443 112.54C220.106 113.214 219.633 113.739 219.023 114.114C218.413 114.489 217.699 114.676 216.881 114.676ZM216.886 113.25C217.417 113.25 217.856 113.11 218.205 112.83C218.553 112.549 218.811 112.176 218.977 111.71C219.148 111.244 219.233 110.731 219.233 110.17C219.233 109.614 219.148 109.102 218.977 108.636C218.811 108.167 218.553 107.79 218.205 107.506C217.856 107.222 217.417 107.08 216.886 107.08C216.352 107.08 215.909 107.222 215.557 107.506C215.208 107.79 214.949 108.167 214.778 108.636C214.612 109.102 214.528 109.614 214.528 110.17C214.528 110.731 214.612 111.244 214.778 111.71C214.949 112.176 215.208 112.549 215.557 112.83C215.909 113.11 216.352 113.25 216.886 113.25ZM221.794 107.239V105.773H229.158V107.239H226.311V114.5H224.652V107.239H221.794ZM234.224 114.676C233.406 114.676 232.692 114.489 232.082 114.114C231.473 113.739 230.999 113.214 230.662 112.54C230.325 111.866 230.156 111.078 230.156 110.176C230.156 109.271 230.325 108.479 230.662 107.801C230.999 107.123 231.473 106.597 232.082 106.222C232.692 105.847 233.406 105.659 234.224 105.659C235.043 105.659 235.757 105.847 236.366 106.222C236.976 106.597 237.45 107.123 237.787 107.801C238.124 108.479 238.293 109.271 238.293 110.176C238.293 111.078 238.124 111.866 237.787 112.54C237.45 113.214 236.976 113.739 236.366 114.114C235.757 114.489 235.043 114.676 234.224 114.676ZM234.23 113.25C234.76 113.25 235.2 113.11 235.548 112.83C235.897 112.549 236.154 112.176 236.321 111.71C236.491 111.244 236.577 110.731 236.577 110.17C236.577 109.614 236.491 109.102 236.321 108.636C236.154 108.167 235.897 107.79 235.548 107.506C235.2 107.222 234.76 107.08 234.23 107.08C233.696 107.08 233.253 107.222 232.901 107.506C232.552 107.79 232.293 108.167 232.122 108.636C231.955 109.102 231.872 109.614 231.872 110.17C231.872 110.731 231.955 111.244 232.122 111.71C232.293 112.176 232.552 112.549 232.901 112.83C233.253 113.11 233.696 113.25 234.23 113.25Z" fill="#313131"/>
<rect x="86" y="133" width="188" height="44" rx="7.5" stroke="#1856CD"/>
<path d="M123.143 156.357H118.857V160.643C118.857 161.114 118.471 161.5 118 161.5C117.529 161.5 117.143 161.114 117.143 160.643V156.357H112.857C112.386 156.357 112 155.971 112 155.5C112 155.029 112.386 154.643 112.857 154.643H117.143V150.357C117.143 149.886 117.529 149.5 118 149.5C118.471 149.5 118.857 149.886 118.857 150.357V154.643H123.143C123.614 154.643 124 155.029 124 155.5C124 155.971 123.614 156.357 123.143 156.357Z" fill="#1856CD"/>
<path d="M134.71 161.159C133.892 161.159 133.165 161.019 132.528 160.739C131.896 160.458 131.396 160.068 131.028 159.568C130.661 159.068 130.466 158.491 130.443 157.835H132.58C132.598 158.15 132.703 158.424 132.892 158.659C133.081 158.89 133.333 159.07 133.648 159.199C133.962 159.328 134.314 159.392 134.705 159.392C135.121 159.392 135.491 159.32 135.812 159.176C136.134 159.028 136.386 158.824 136.568 158.562C136.75 158.301 136.839 158 136.835 157.659C136.839 157.307 136.748 156.996 136.562 156.727C136.377 156.458 136.108 156.248 135.756 156.097C135.407 155.945 134.987 155.869 134.494 155.869H133.466V154.244H134.494C134.9 154.244 135.254 154.174 135.557 154.034C135.864 153.894 136.104 153.697 136.278 153.443C136.453 153.186 136.538 152.888 136.534 152.551C136.538 152.222 136.464 151.936 136.312 151.693C136.165 151.447 135.955 151.256 135.682 151.119C135.413 150.983 135.097 150.915 134.733 150.915C134.377 150.915 134.047 150.979 133.744 151.108C133.441 151.237 133.197 151.42 133.011 151.659C132.826 151.894 132.727 152.174 132.716 152.5H130.688C130.703 151.848 130.89 151.277 131.25 150.784C131.614 150.288 132.098 149.902 132.705 149.625C133.311 149.345 133.991 149.205 134.744 149.205C135.521 149.205 136.195 149.35 136.767 149.642C137.343 149.93 137.788 150.318 138.102 150.807C138.417 151.295 138.574 151.835 138.574 152.426C138.578 153.081 138.384 153.631 137.994 154.074C137.608 154.517 137.1 154.807 136.472 154.943V155.034C137.29 155.148 137.917 155.451 138.352 155.943C138.792 156.432 139.009 157.04 139.006 157.767C139.006 158.419 138.82 159.002 138.449 159.517C138.081 160.028 137.574 160.43 136.926 160.722C136.282 161.013 135.544 161.159 134.71 161.159ZM143.49 161.176C142.937 161.176 142.439 161.078 141.996 160.881C141.556 160.68 141.208 160.384 140.95 159.994C140.696 159.604 140.57 159.123 140.57 158.551C140.57 158.059 140.661 157.652 140.842 157.33C141.024 157.008 141.272 156.75 141.587 156.557C141.901 156.364 142.255 156.218 142.649 156.119C143.047 156.017 143.458 155.943 143.882 155.898C144.393 155.845 144.808 155.797 145.126 155.756C145.445 155.71 145.676 155.642 145.82 155.551C145.967 155.456 146.041 155.311 146.041 155.114V155.08C146.041 154.652 145.914 154.32 145.661 154.085C145.407 153.85 145.041 153.733 144.564 153.733C144.06 153.733 143.661 153.843 143.365 154.062C143.073 154.282 142.876 154.542 142.774 154.841L140.854 154.568C141.005 154.038 141.255 153.595 141.604 153.239C141.952 152.879 142.378 152.61 142.882 152.432C143.386 152.25 143.943 152.159 144.553 152.159C144.973 152.159 145.392 152.208 145.808 152.307C146.225 152.405 146.606 152.568 146.95 152.795C147.295 153.019 147.571 153.324 147.78 153.71C147.992 154.097 148.098 154.58 148.098 155.159V161H146.121V159.801H146.053C145.928 160.044 145.751 160.271 145.524 160.483C145.301 160.691 145.018 160.86 144.678 160.989C144.34 161.114 143.945 161.176 143.49 161.176ZM144.024 159.665C144.437 159.665 144.795 159.583 145.098 159.42C145.401 159.254 145.634 159.034 145.797 158.761C145.964 158.489 146.047 158.191 146.047 157.869V156.841C145.982 156.894 145.873 156.943 145.717 156.989C145.566 157.034 145.395 157.074 145.206 157.108C145.017 157.142 144.829 157.172 144.643 157.199C144.458 157.225 144.297 157.248 144.161 157.267C143.854 157.309 143.579 157.377 143.337 157.472C143.094 157.566 142.903 157.699 142.763 157.869C142.623 158.036 142.553 158.252 142.553 158.517C142.553 158.896 142.691 159.182 142.967 159.375C143.244 159.568 143.596 159.665 144.024 159.665ZM155.939 152.273V153.96H152.178V161H150.166V152.273H155.939ZM157.588 164.273V152.273H159.611V153.716H159.73C159.836 153.504 159.986 153.278 160.179 153.04C160.372 152.797 160.634 152.591 160.963 152.42C161.293 152.246 161.713 152.159 162.224 152.159C162.899 152.159 163.507 152.331 164.048 152.676C164.594 153.017 165.026 153.523 165.344 154.193C165.666 154.86 165.827 155.678 165.827 156.648C165.827 157.606 165.67 158.42 165.355 159.091C165.041 159.761 164.613 160.273 164.071 160.625C163.529 160.977 162.916 161.153 162.23 161.153C161.73 161.153 161.315 161.07 160.986 160.903C160.656 160.737 160.391 160.536 160.19 160.301C159.993 160.062 159.84 159.837 159.73 159.625H159.645V164.273H157.588ZM159.605 156.636C159.605 157.201 159.685 157.695 159.844 158.119C160.007 158.544 160.24 158.875 160.543 159.114C160.849 159.348 161.221 159.466 161.656 159.466C162.111 159.466 162.491 159.345 162.798 159.102C163.105 158.856 163.336 158.521 163.491 158.097C163.651 157.669 163.73 157.182 163.73 156.636C163.73 156.095 163.652 155.614 163.497 155.193C163.342 154.773 163.111 154.443 162.804 154.205C162.497 153.966 162.115 153.847 161.656 153.847C161.217 153.847 160.844 153.962 160.537 154.193C160.23 154.424 159.997 154.748 159.838 155.165C159.683 155.581 159.605 156.072 159.605 156.636ZM168.57 164.273C168.289 164.273 168.03 164.25 167.791 164.205C167.556 164.163 167.369 164.114 167.229 164.057L167.706 162.455C168.005 162.542 168.272 162.583 168.507 162.58C168.742 162.576 168.948 162.502 169.126 162.358C169.308 162.218 169.462 161.983 169.587 161.653L169.763 161.182L166.598 152.273H168.78L170.791 158.864H170.882L172.899 152.273H175.087L171.592 162.057C171.429 162.519 171.214 162.915 170.945 163.244C170.676 163.578 170.346 163.831 169.956 164.006C169.57 164.184 169.107 164.273 168.57 164.273ZM176.027 158.608H178.067C178.086 158.934 178.232 159.186 178.504 159.364C178.777 159.542 179.131 159.631 179.567 159.631C180.01 159.631 180.383 159.534 180.686 159.341C180.993 159.144 181.146 158.847 181.146 158.449C181.146 158.214 181.088 158.008 180.97 157.83C180.853 157.648 180.688 157.508 180.476 157.409C180.264 157.311 180.014 157.261 179.726 157.261H178.391V155.801H179.726C180.154 155.801 180.478 155.703 180.697 155.506C180.921 155.309 181.033 155.061 181.033 154.761C181.033 154.439 180.915 154.178 180.68 153.977C180.449 153.777 180.129 153.676 179.72 153.676C179.311 153.676 178.97 153.769 178.697 153.955C178.429 154.14 178.288 154.379 178.277 154.67H176.249C176.256 154.163 176.408 153.722 176.703 153.347C177.002 152.972 177.404 152.68 177.908 152.472C178.415 152.263 178.987 152.159 179.624 152.159C180.305 152.159 180.894 152.261 181.391 152.466C181.887 152.67 182.269 152.956 182.538 153.324C182.807 153.687 182.942 154.116 182.942 154.608C182.942 155.081 182.794 155.473 182.499 155.784C182.203 156.091 181.805 156.311 181.305 156.443V156.534C181.65 156.553 181.961 156.652 182.237 156.83C182.514 157.004 182.733 157.241 182.896 157.54C183.059 157.839 183.141 158.186 183.141 158.58C183.141 159.114 182.987 159.576 182.68 159.966C182.374 160.352 181.951 160.65 181.413 160.858C180.879 161.066 180.268 161.17 179.578 161.17C178.908 161.17 178.307 161.07 177.777 160.869C177.25 160.665 176.832 160.371 176.521 159.989C176.211 159.606 176.046 159.146 176.027 158.608ZM186.743 158.216L190.237 152.273H192.351V161H190.362V155.051L186.879 161H184.76V152.273H186.743V158.216ZM193.486 153.96V152.273H201.122V153.96H198.298V161H196.31V153.96H193.486ZM204.152 155.114H206.726C207.839 155.114 208.701 155.384 209.311 155.926C209.921 156.468 210.228 157.178 210.232 158.057C210.228 158.629 210.088 159.136 209.811 159.58C209.538 160.023 209.141 160.371 208.618 160.625C208.099 160.875 207.468 161 206.726 161H202.76V152.273H204.743V159.312H206.726C207.173 159.312 207.54 159.199 207.828 158.972C208.116 158.741 208.26 158.445 208.26 158.085C208.26 157.706 208.116 157.398 207.828 157.159C207.54 156.92 207.173 156.801 206.726 156.801H204.152V155.114ZM219.923 163.966V149.364H221.986V163.966H219.923ZM219.923 161.17C219.283 161.17 218.698 161.062 218.168 160.847C217.637 160.631 217.179 160.324 216.793 159.926C216.41 159.528 216.113 159.055 215.901 158.506C215.692 157.953 215.588 157.341 215.588 156.67C215.588 156 215.692 155.388 215.901 154.835C216.113 154.282 216.41 153.807 216.793 153.409C217.179 153.008 217.637 152.699 218.168 152.483C218.698 152.267 219.283 152.159 219.923 152.159H220.361V161.17H219.923ZM219.923 159.511H220.179V153.818H219.923C219.56 153.818 219.238 153.894 218.957 154.045C218.681 154.193 218.448 154.4 218.259 154.665C218.073 154.926 217.931 155.229 217.832 155.574C217.738 155.915 217.69 156.28 217.69 156.67C217.69 157.189 217.776 157.665 217.946 158.097C218.116 158.525 218.366 158.867 218.696 159.125C219.029 159.383 219.438 159.511 219.923 159.511ZM221.986 161.17H221.548V152.159H221.986C222.626 152.159 223.211 152.267 223.741 152.483C224.272 152.699 224.728 153.008 225.111 153.409C225.497 153.807 225.795 154.282 226.003 154.835C226.215 155.388 226.321 156 226.321 156.67C226.321 157.341 226.215 157.953 226.003 158.506C225.795 159.055 225.497 159.528 225.111 159.926C224.728 160.324 224.272 160.631 223.741 160.847C223.211 161.062 222.626 161.17 221.986 161.17ZM221.986 159.511C222.353 159.511 222.675 159.437 222.952 159.29C223.228 159.142 223.459 158.937 223.645 158.676C223.834 158.415 223.976 158.114 224.071 157.773C224.166 157.428 224.213 157.061 224.213 156.67C224.213 156.152 224.13 155.676 223.963 155.244C223.796 154.812 223.546 154.468 223.213 154.21C222.884 153.949 222.474 153.818 221.986 153.818H221.73V159.511H221.986ZM231.864 161.17C231.011 161.17 230.273 160.983 229.648 160.608C229.023 160.233 228.538 159.708 228.193 159.034C227.852 158.36 227.682 157.572 227.682 156.67C227.682 155.769 227.852 154.979 228.193 154.301C228.538 153.623 229.023 153.097 229.648 152.722C230.273 152.347 231.011 152.159 231.864 152.159C232.716 152.159 233.455 152.347 234.08 152.722C234.705 153.097 235.188 153.623 235.528 154.301C235.873 154.979 236.045 155.769 236.045 156.67C236.045 157.572 235.873 158.36 235.528 159.034C235.188 159.708 234.705 160.233 234.08 160.608C233.455 160.983 232.716 161.17 231.864 161.17ZM231.875 159.523C232.337 159.523 232.723 159.396 233.034 159.142C233.345 158.884 233.576 158.54 233.727 158.108C233.883 157.676 233.96 157.195 233.96 156.665C233.96 156.131 233.883 155.648 233.727 155.216C233.576 154.78 233.345 154.434 233.034 154.176C232.723 153.919 232.337 153.79 231.875 153.79C231.402 153.79 231.008 153.919 230.693 154.176C230.383 154.434 230.15 154.78 229.994 155.216C229.843 155.648 229.767 156.131 229.767 156.665C229.767 157.195 229.843 157.676 229.994 158.108C230.15 158.54 230.383 158.884 230.693 159.142C231.008 159.396 231.402 159.523 231.875 159.523ZM236.83 153.96V152.273H244.466V153.96H241.642V161H239.653V153.96H236.83ZM249.551 161.17C248.699 161.17 247.96 160.983 247.335 160.608C246.71 160.233 246.225 159.708 245.881 159.034C245.54 158.36 245.369 157.572 245.369 156.67C245.369 155.769 245.54 154.979 245.881 154.301C246.225 153.623 246.71 153.097 247.335 152.722C247.96 152.347 248.699 152.159 249.551 152.159C250.403 152.159 251.142 152.347 251.767 152.722C252.392 153.097 252.875 153.623 253.216 154.301C253.561 154.979 253.733 155.769 253.733 156.67C253.733 157.572 253.561 158.36 253.216 159.034C252.875 159.708 252.392 160.233 251.767 160.608C251.142 160.983 250.403 161.17 249.551 161.17ZM249.562 159.523C250.025 159.523 250.411 159.396 250.722 159.142C251.032 158.884 251.263 158.54 251.415 158.108C251.57 157.676 251.648 157.195 251.648 156.665C251.648 156.131 251.57 155.648 251.415 155.216C251.263 154.78 251.032 154.434 250.722 154.176C250.411 153.919 250.025 153.79 249.562 153.79C249.089 153.79 248.695 153.919 248.381 154.176C248.07 154.434 247.837 154.78 247.682 155.216C247.53 155.648 247.455 156.131 247.455 156.665C247.455 157.195 247.53 157.676 247.682 158.108C247.837 158.54 248.07 158.884 248.381 159.142C248.695 159.396 249.089 159.523 249.562 159.523Z" fill="#1856CD"/>
</svg>
