<svg width="40" height="40" viewBox="0 0 40 40" fill="none" xmlns="http://www.w3.org/2000/svg">
<rect width="40" height="40" rx="10" fill="white"/>
<g clip-path="url(#clip0_74_3664)">
<path d="M18.3398 10.0234C16.7617 10.1249 14.875 10.3867 14.2812 10.5898C12.7266 11.121 11.168 12.6601 10.6094 14.2187C10.4414 14.6835 10.2422 15.9101 10.0898 17.4218C9.98828 18.4101 9.98828 21.5898 10.0898 22.5781C10.2422 24.0898 10.4414 25.3163 10.6094 25.7812C11.082 27.0976 12.3477 28.4921 13.6719 29.1601C14.3672 29.5117 15.2773 29.6913 17.4609 29.9101C18.3281 29.996 21.4609 30.0077 22.3242 29.9296C23.7031 29.8007 25.1875 29.5859 25.625 29.4492C26.0117 29.332 26.6953 28.9765 27.1094 28.6796C27.5859 28.3398 28.3477 27.582 28.6797 27.1093C29.2305 26.332 29.4688 25.7382 29.625 24.7851C29.9141 22.9921 29.9805 22.1015 29.9805 19.9999C29.9805 18.1913 29.9609 17.8124 29.8008 16.4843C29.5703 14.539 29.3984 13.9609 28.793 13.0624C28.0273 11.9218 26.8789 10.996 25.7422 10.5937C25.2812 10.4335 24.1484 10.2538 22.5781 10.0937C22.0039 10.0351 18.9609 9.98431 18.3398 10.0234ZM23.5273 13.9179C24.2227 14.1327 24.7227 14.4492 25.2188 14.9726C25.8242 15.6171 26.1328 16.3202 26.2109 17.246C26.2617 17.8163 26.2617 22.246 26.2109 22.7929C26.1641 23.332 26.0586 23.7109 25.8398 24.1601C25.418 25.0156 24.6641 25.6874 23.7617 26.0117C23.1602 26.2304 23.1562 26.2304 19.9805 26.2304C16.7461 26.2304 16.8086 26.2343 16.1445 25.9765C15.2891 25.6484 14.5664 24.9843 14.1602 24.1601C13.9414 23.7109 13.8359 23.332 13.7891 22.7929C13.7383 22.2382 13.7383 17.8163 13.7891 17.2226C13.8672 16.2734 14.2461 15.4765 14.9258 14.8202C15.4648 14.3046 16.0156 14.0117 16.7617 13.8476C16.9648 13.8046 17.5742 13.7968 20.0977 13.8007L23.1836 13.8085L23.5273 13.9179Z" fill="#1856CD"/>
<path d="M16.8433 15.0781C15.98 15.3047 15.2573 16.0352 15.0581 16.8789C14.9722 17.2539 14.9722 22.75 15.062 23.125C15.2651 23.9883 15.9839 24.7188 16.855 24.9414C17.0503 24.9922 17.5269 25 19.9995 25C22.8237 25 22.9214 24.9961 23.2026 24.918C23.6441 24.7969 23.9253 24.6289 24.2769 24.2773C24.6284 23.9297 24.8355 23.5703 24.937 23.125C25.0269 22.7461 25.0308 17.2422 24.9409 16.8945C24.73 16.0625 24.1011 15.3867 23.2808 15.1055C23.0269 15.0195 23.0112 15.0195 20.0776 15.0117C17.2691 15.0039 17.1128 15.0078 16.8433 15.0781ZM23.5855 16.0898C24.1714 16.3906 24.1636 17.168 23.5776 17.4688C23.3589 17.5781 23.0308 17.5547 22.8237 17.4102C22.3276 17.0664 22.398 16.3164 22.9487 16.0703C23.1206 15.9961 23.4175 16.0039 23.5855 16.0898ZM20.7573 16.8945C21.7105 17.1484 22.4409 17.7422 22.8862 18.6211C23.1167 19.0781 23.1831 19.4062 23.1792 20.0391C23.1792 20.5664 23.1714 20.6289 23.0542 20.9766C22.773 21.8281 22.1792 22.5078 21.3941 22.8906C20.0659 23.5312 18.4136 23.1641 17.5269 22.0352C15.98 20.0664 17.0425 17.2812 19.5073 16.8359C19.7808 16.7891 20.4761 16.8203 20.7573 16.8945Z" fill="#1856CD"/>
<path d="M19.543 18.0664C18.668 18.2578 18.0078 19.0898 18.0078 20C18.0078 20.543 18.207 21.0234 18.5898 21.4101C18.9922 21.8125 19.4258 21.9883 20 21.9922C21.1133 21.9961 21.9922 21.1133 21.9922 20C21.9922 19.0742 21.3359 18.2539 20.4414 18.0664C20.1172 17.9961 19.8633 17.9961 19.543 18.0664Z" fill="#1856CD"/>
</g>
<defs>
<clipPath id="clip0_74_3664">
<rect width="20" height="20" fill="white" transform="translate(10 10)"/>
</clipPath>
</defs>
</svg>
