<svg width="30" height="30" viewBox="0 0 30 30" fill="none" xmlns="http://www.w3.org/2000/svg">
<rect width="30" height="30" rx="6" fill="#1856CD" fill-opacity="0.1"/>
<path d="M14.8142 12.5081L14.8421 12.9687L14.3765 12.9123C12.6818 12.6961 11.2012 11.9628 9.9441 10.7313L9.32952 10.1203L9.17122 10.5715C8.83599 11.5774 9.05017 12.6397 9.74855 13.3542C10.121 13.749 10.0372 13.8054 9.3947 13.5704C9.17122 13.4952 8.97567 13.4388 8.95705 13.467C8.89187 13.5328 9.11535 14.3883 9.29227 14.7267C9.53438 15.1967 10.0279 15.6574 10.568 15.93L11.0243 16.1462L10.4842 16.1556C9.96272 16.1556 9.9441 16.165 9.99997 16.3624C10.1862 16.9735 10.9218 17.6221 11.7413 17.9042L12.3186 18.1016L11.8158 18.4024C11.0708 18.8349 10.1955 19.0793 9.32021 19.0981C8.90118 19.1075 8.55664 19.1451 8.55664 19.1733C8.55664 19.2673 9.69268 19.7937 10.3538 20.0006C12.3372 20.6116 14.6931 20.3484 16.4624 19.3049C17.7195 18.5622 18.9766 17.0863 19.5632 15.6574C19.8798 14.8959 20.1964 13.5046 20.1964 12.8371C20.1964 12.4047 20.2243 12.3483 20.7458 11.8312C21.0531 11.5304 21.3418 11.2014 21.3976 11.1074C21.4907 10.9287 21.4814 10.9287 21.0065 11.0886C20.215 11.3706 20.1033 11.333 20.4944 10.9099C20.783 10.6091 21.1276 10.0639 21.1276 9.90404C21.1276 9.87584 20.9879 9.92285 20.8296 10.0075C20.662 10.1015 20.2895 10.2425 20.0102 10.3271L19.5073 10.4869L19.0511 10.1767C18.7996 10.0075 18.4458 9.81944 18.2595 9.76303C17.7846 9.63142 17.0583 9.65022 16.63 9.80063C15.466 10.2237 14.7304 11.3142 14.8142 12.5081Z" fill="#1856CD"/>
</svg>
