<svg width="30" height="30" viewBox="0 0 30 30" fill="none" xmlns="http://www.w3.org/2000/svg">
<rect width="30" height="30" rx="6" fill="#1856CD" fill-opacity="0.1"/>
<path d="M16.0122 8.98701C15.8944 8.99878 15.6236 9.06001 15.4564 9.11183C14.6957 9.34498 14.121 9.92198 13.8714 10.7015C13.7371 11.1231 13.723 11.2691 13.7112 12.3666L13.6995 13.3746H12.7833H11.8672V14.4579V15.5413H12.7857H13.7042V18.285V21.0287H14.8229H15.9415V18.285V15.5413H16.8671H17.7903L17.9269 14.4744C18.0023 13.8903 18.0635 13.4028 18.0611 13.3911C18.0611 13.3816 17.583 13.3746 16.999 13.3746H15.9368L15.9462 12.5314C15.9557 11.7307 15.958 11.6836 16.0098 11.5258C16.0522 11.3939 16.0899 11.3374 16.1865 11.2408C16.4078 11.0195 16.6528 10.9724 17.6207 10.9724H18.1318V10.0091V9.04588L17.9975 9.03175C17.5195 8.97994 16.3325 8.95168 16.0122 8.98701Z" fill="#1856CD"/>
</svg>
