<svg width="171" height="35" viewBox="0 0 171 35" fill="none" xmlns="http://www.w3.org/2000/svg">
<mask id="mask0_135_6212" style="mask-type:luminance" maskUnits="userSpaceOnUse" x="0" y="0" width="35" height="35">
<path d="M34.3358 0.0687408H0V34.9313H34.3358V0.0687408Z" fill="white"/>
</mask>
<g mask="url(#mask0_135_6212)">
<path d="M18.9198 6.03955L20.2442 4.71521C22.8448 2.11455 27.0787 2.05018 29.6944 4.63585C30.6855 5.61779 31.3441 6.88553 31.5778 8.26099C31.8114 9.63647 31.6083 11.0506 30.9969 12.3047C30.7037 12.9038 30.6049 13.5794 30.7142 14.2374C30.8237 14.8953 31.1359 15.5027 31.6072 15.9746C32.474 15.1058 33.161 14.0748 33.6291 12.9405C34.0972 11.8061 34.3373 10.5906 34.3356 9.36347C34.3337 8.13633 34.0904 6.92153 33.619 5.78851C33.1477 4.65547 32.4577 3.62641 31.5885 2.76012C27.931 -0.876754 21.9942 -0.804381 18.347 2.84271L5.72375 15.4656L4.68601 14.4278C2.04124 11.7831 2.02438 7.45994 4.71581 4.86217C5.71205 3.90356 6.98129 3.27778 8.34834 3.07122C9.71539 2.86466 11.1128 3.0875 12.3478 3.70897C12.9115 3.99783 13.5521 4.10116 14.178 4.00422C14.804 3.90727 15.3833 3.615 15.8332 3.16915L15.8653 3.13714C15.8754 3.12719 15.8833 3.11536 15.8887 3.10231C15.8941 3.08929 15.8969 3.0753 15.8969 3.06119C15.8969 3.04707 15.8941 3.03309 15.8887 3.02006C15.8833 3.00704 15.8754 2.9952 15.8653 2.98524C14.1279 1.29148 11.7997 0.340094 9.37331 0.332402C6.94692 0.324712 4.6127 1.26131 2.86459 2.94403C-0.901026 6.5792 -0.88757 12.6241 2.8135 16.3252L15.433 28.9447L14.0925 30.2852C11.4918 32.8859 7.25772 32.9502 4.64224 30.3646C3.65114 29.3827 2.99251 28.1149 2.75886 26.7394C2.52522 25.364 2.72827 23.9499 3.33953 22.6957C3.63278 22.0967 3.73162 21.4209 3.62224 20.7631C3.51285 20.1051 3.20069 19.4977 2.72938 19.0258C1.86266 19.8946 1.1756 20.9256 0.707453 22.0599C0.239305 23.1943 -0.000753586 24.4097 0.000985949 25.637C0.00272549 26.8641 0.246229 28.0789 0.717592 29.2119C1.18895 30.345 1.87894 31.374 2.74811 32.2403C6.40542 35.8773 12.3424 35.8051 15.9897 32.1579L28.6292 19.5181L29.6709 20.5598C32.2715 23.1605 32.3359 27.3944 29.7502 30.0098C28.7683 31.0011 27.5005 31.6596 26.1251 31.8934C24.7497 32.127 23.3356 31.9239 22.0814 31.3126C21.4822 31.0191 20.8061 30.9202 20.148 31.0299C19.4898 31.1394 18.8822 31.4519 18.4103 31.9236C19.2791 32.7903 20.3101 33.4774 21.4444 33.9456C22.5788 34.4137 23.7942 34.6538 25.0215 34.6521C26.2486 34.6502 27.4634 34.4067 28.5964 33.9354C29.7295 33.464 30.7585 32.774 31.6248 31.9048C35.2618 28.2475 35.1895 22.3105 31.5424 18.6635L18.9198 6.03955ZM17.3174 27.0594L7.60868 17.3507L17.0347 7.92483L26.7434 17.6335L17.3174 27.0594Z" fill="white"/>
</g>
<path d="M56.0729 27.39C54.2009 27.39 52.5976 26.9827 51.2629 26.168C49.9283 25.3447 48.9013 24.2007 48.1819 22.736C47.4713 21.2713 47.1159 19.5727 47.1159 17.64C47.1159 15.7073 47.4713 14.0087 48.1819 12.544C48.9013 11.0793 49.9283 9.93967 51.2629 9.125C52.5976 8.30167 54.2009 7.89 56.0729 7.89C58.2309 7.89 60.0293 8.43167 61.4679 9.515C62.9066 10.5897 63.9163 12.0413 64.4969 13.87L61.3379 14.741C60.9739 13.519 60.3543 12.5657 59.4789 11.881C58.6036 11.1877 57.4683 10.841 56.0729 10.841C54.8163 10.841 53.7676 11.1227 52.9269 11.686C52.0949 12.2493 51.4666 13.0423 51.0419 14.065C50.6259 15.079 50.4136 16.2707 50.4049 17.64C50.4049 19.0093 50.6129 20.2053 51.0289 21.228C51.4536 22.242 52.0863 23.0307 52.9269 23.594C53.7676 24.1573 54.8163 24.439 56.0729 24.439C57.4683 24.439 58.6036 24.0923 59.4789 23.399C60.3543 22.7057 60.9739 21.7523 61.3379 20.539L64.4969 21.41C63.9163 23.2387 62.9066 24.6947 61.4679 25.778C60.0293 26.8527 58.2309 27.39 56.0729 27.39ZM67.3513 27V12.96H70.1203V16.379L69.7823 15.937C69.9556 15.469 70.1853 15.0443 70.4713 14.663C70.7659 14.273 71.1169 13.9523 71.5243 13.701C71.8709 13.467 72.2523 13.285 72.6683 13.155C73.0929 13.0163 73.5263 12.934 73.9683 12.908C74.4103 12.8733 74.8393 12.8907 75.2553 12.96V15.885C74.8393 15.7637 74.3583 15.7247 73.8123 15.768C73.2749 15.8113 72.7896 15.963 72.3563 16.223C71.9229 16.457 71.5676 16.756 71.2903 17.12C71.0216 17.484 70.8223 17.9 70.6923 18.368C70.5623 18.8273 70.4973 19.3257 70.4973 19.863V27H67.3513ZM79.1504 33.24L81.8544 25.817L81.9064 28.001L75.7834 12.96H79.0464L83.3884 24.088H82.5564L86.7814 12.96H89.9144L82.0884 33.24H79.1504ZM98.6002 27.39C97.2309 27.39 96.0825 27.065 95.1552 26.415C94.2279 25.765 93.5302 24.881 93.0622 23.763C92.5942 22.6363 92.3602 21.3753 92.3602 19.98C92.3602 18.5673 92.5942 17.302 93.0622 16.184C93.5302 15.066 94.2149 14.1863 95.1162 13.545C96.0262 12.895 97.1485 12.57 98.4832 12.57C99.8092 12.57 100.958 12.895 101.928 13.545C102.908 14.1863 103.666 15.066 104.203 16.184C104.741 17.2933 105.009 18.5587 105.009 19.98C105.009 21.384 104.745 22.645 104.216 23.763C103.688 24.881 102.942 25.765 101.98 26.415C101.018 27.065 99.8915 27.39 98.6002 27.39ZM91.8272 33.24V12.96H94.5962V22.814H94.9862V33.24H91.8272ZM98.1192 24.582C98.9339 24.582 99.6055 24.3783 100.134 23.971C100.663 23.5637 101.053 23.0133 101.304 22.32C101.564 21.618 101.694 20.838 101.694 19.98C101.694 19.1307 101.564 18.3593 101.304 17.666C101.044 16.964 100.641 16.4093 100.095 16.002C99.5492 15.586 98.8559 15.378 98.0152 15.378C97.2179 15.378 96.5679 15.573 96.0652 15.963C95.5625 16.3443 95.1899 16.8817 94.9472 17.575C94.7132 18.2597 94.5962 19.0613 94.5962 19.98C94.5962 20.89 94.7132 21.6917 94.9472 22.385C95.1899 23.0783 95.5669 23.62 96.0782 24.01C96.5982 24.3913 97.2785 24.582 98.1192 24.582ZM116.104 27C115.176 27.1733 114.266 27.247 113.374 27.221C112.49 27.2037 111.697 27.0433 110.995 26.74C110.293 26.428 109.76 25.9383 109.396 25.271C109.075 24.6643 108.906 24.0447 108.889 23.412C108.871 22.7793 108.863 22.0643 108.863 21.267V9.06H111.983V21.085C111.983 21.6483 111.987 22.1423 111.996 22.567C112.013 22.9917 112.104 23.3383 112.269 23.607C112.581 24.127 113.079 24.4173 113.764 24.478C114.448 24.5387 115.228 24.504 116.104 24.374V27ZM106.315 15.417V12.96H116.104V15.417H106.315ZM124.613 27.39C123.209 27.39 121.982 27.0737 120.934 26.441C119.885 25.8083 119.07 24.9373 118.49 23.828C117.918 22.71 117.632 21.4273 117.632 19.98C117.632 18.5067 117.926 17.2153 118.516 16.106C119.105 14.9967 119.924 14.13 120.973 13.506C122.021 12.882 123.235 12.57 124.613 12.57C126.025 12.57 127.256 12.8863 128.305 13.519C129.353 14.1517 130.168 15.027 130.749 16.145C131.329 17.2543 131.62 18.5327 131.62 19.98C131.62 21.436 131.325 22.723 130.736 23.841C130.155 24.9503 129.34 25.8213 128.292 26.454C127.243 27.078 126.017 27.39 124.613 27.39ZM124.613 24.452C125.861 24.452 126.788 24.036 127.395 23.204C128.001 22.372 128.305 21.2973 128.305 19.98C128.305 18.6193 127.997 17.536 127.382 16.73C126.766 15.9153 125.843 15.508 124.613 15.508C123.772 15.508 123.079 15.6987 122.533 16.08C121.995 16.4527 121.597 16.977 121.337 17.653C121.077 18.3203 120.947 19.096 120.947 19.98C120.947 21.3407 121.254 22.4283 121.87 23.243C122.494 24.049 123.408 24.452 124.613 24.452ZM134.496 27V23.789H137.707V27H134.496ZM141.847 27L141.873 8.28H145.045V19.72L150.18 12.96H154.093L148.646 19.98L154.561 27H150.414L145.045 20.24V27H141.847ZM161.765 33.63C160.985 33.63 160.235 33.5087 159.516 33.266C158.805 33.0233 158.164 32.6723 157.592 32.213C157.02 31.7623 156.552 31.2163 156.188 30.575L159.074 29.145C159.343 29.6563 159.72 30.0333 160.205 30.276C160.699 30.5273 161.223 30.653 161.778 30.653C162.428 30.653 163.009 30.536 163.52 30.302C164.031 30.0767 164.426 29.7387 164.703 29.288C164.989 28.846 165.123 28.2913 165.106 27.624V23.633H165.496V12.96H168.239V27.676C168.239 28.0313 168.222 28.3693 168.187 28.69C168.161 29.0193 168.113 29.34 168.044 29.652C167.836 30.562 167.437 31.3073 166.848 31.888C166.259 32.4773 165.526 32.915 164.651 33.201C163.784 33.487 162.822 33.63 161.765 33.63ZM161.492 27.39C160.201 27.39 159.074 27.065 158.112 26.415C157.15 25.765 156.405 24.881 155.876 23.763C155.347 22.645 155.083 21.384 155.083 19.98C155.083 18.5587 155.347 17.2933 155.876 16.184C156.413 15.066 157.172 14.1863 158.151 13.545C159.13 12.895 160.283 12.57 161.609 12.57C162.944 12.57 164.062 12.895 164.963 13.545C165.873 14.1863 166.562 15.066 167.03 16.184C167.498 17.302 167.732 18.5673 167.732 19.98C167.732 21.3753 167.498 22.6363 167.03 23.763C166.562 24.881 165.864 25.765 164.937 26.415C164.01 27.065 162.861 27.39 161.492 27.39ZM161.973 24.582C162.814 24.582 163.49 24.3913 164.001 24.01C164.521 23.62 164.898 23.0783 165.132 22.385C165.375 21.6917 165.496 20.89 165.496 19.98C165.496 19.0613 165.375 18.2597 165.132 17.575C164.898 16.8817 164.53 16.3443 164.027 15.963C163.524 15.573 162.874 15.378 162.077 15.378C161.236 15.378 160.543 15.586 159.997 16.002C159.451 16.4093 159.048 16.964 158.788 17.666C158.528 18.3593 158.398 19.1307 158.398 19.98C158.398 20.838 158.524 21.618 158.775 22.32C159.035 23.0133 159.429 23.5637 159.958 23.971C160.487 24.3783 161.158 24.582 161.973 24.582Z" fill="white"/>
</svg>
