<svg width="30" height="30" viewBox="0 0 30 30" fill="none" xmlns="http://www.w3.org/2000/svg">
<path d="M15 30C23.2843 30 30 23.2843 30 15C30 6.71573 23.2843 0 15 0C6.71573 0 0 6.71573 0 15C0 23.2843 6.71573 30 15 30Z" fill="#F7931A"/>
<path fill-rule="evenodd" clip-rule="evenodd" d="M20.6607 11.1515C20.5108 9.17008 18.8172 8.47239 16.6658 8.2397L16.7216 5.49663L15.0519 5.46282L14.9976 8.13359C14.5587 8.12472 14.1098 8.12426 13.6639 8.12408L13.7189 5.43563L12.0501 5.40162L11.9936 8.14389C11.632 8.14391 11.2769 8.1434 10.9307 8.13659L10.9307 8.12808L8.62777 8.08042L8.59191 9.86371C8.59191 9.86371 9.82539 9.8653 9.80443 9.88758C10.4807 9.90155 10.6929 10.2987 10.75 10.6388L10.6865 13.7637C10.7332 13.7649 10.794 13.7681 10.8628 13.7789L10.8062 13.7778C10.7675 13.7769 10.7273 13.7761 10.6864 13.7756L10.5969 18.1533C10.5629 18.3655 10.4309 18.7023 9.95833 18.6935C9.97931 18.7129 8.7446 18.6685 8.7446 18.6685L8.37227 20.6558L10.5451 20.6999C10.7878 20.7052 11.0282 20.7127 11.266 20.7201L11.2663 20.7201C11.4245 20.725 11.5817 20.7299 11.7377 20.734L11.682 23.5084L13.3499 23.5426L13.4057 20.7976C13.8634 20.8164 14.3065 20.829 14.7392 20.8374L14.6829 23.5698L16.3526 23.6036L16.4095 20.8342C19.2198 20.7303 21.1989 20.0631 21.4965 17.432C21.7367 15.3134 20.7575 14.346 19.1718 13.9309C20.1499 13.4577 20.7728 12.6015 20.6607 11.1515ZM18.2018 17.0364C18.164 18.9385 15.1768 18.8362 13.81 18.7894C13.6871 18.7852 13.5772 18.7814 13.4838 18.7796L13.559 15.1039C13.6728 15.1062 13.811 15.1057 13.9677 15.1052C15.3692 15.1007 18.2415 15.0913 18.2018 17.0364ZM13.8703 13.4297C15.0105 13.4717 17.4976 13.5632 17.5332 11.8341C17.569 10.0657 15.1754 10.0803 14.0064 10.0875C13.8749 10.0883 13.7589 10.089 13.6636 10.0871L13.5956 13.4209C13.6741 13.4225 13.7666 13.4259 13.8703 13.4297Z" fill="white"/>
</svg>
