<svg width="24" height="24" viewBox="0 0 24 24" fill="none" xmlns="http://www.w3.org/2000/svg">
<path d="M11.999 24C18.6264 24 23.999 18.6274 23.999 12C23.999 5.37258 18.6264 0 11.999 0C5.37161 0 -0.000976562 5.37258 -0.000976562 12C-0.000976562 18.6274 5.37161 24 11.999 24Z" fill="#F7931A"/>
<path fill-rule="evenodd" clip-rule="evenodd" d="M16.5249 8.92124C16.405 7.33609 15.0501 6.77793 13.3289 6.59178L13.3735 4.39732L12.0378 4.37028L11.9944 6.5069C11.6432 6.4998 11.2842 6.49943 10.9274 6.49929L10.9714 4.34853L9.63635 4.32132L9.59121 6.51514C9.30189 6.51516 9.01778 6.51475 8.74085 6.50929L8.74081 6.50249L6.8985 6.46436L6.86982 7.89099C6.86982 7.89099 7.8566 7.89226 7.83983 7.91009C8.38088 7.92127 8.55058 8.23895 8.59628 8.51105L8.54552 11.011C8.58285 11.012 8.63153 11.0145 8.68652 11.0232L8.64127 11.0222L8.64121 11.0222C8.61024 11.0216 8.57813 11.0209 8.54541 11.0205L8.4738 14.5227C8.44659 14.6924 8.34097 14.9619 7.96295 14.9549C7.97973 14.9704 6.99197 14.9348 6.99197 14.9348L6.6941 16.5247L8.43239 16.56C8.62654 16.5642 8.81878 16.5701 9.00902 16.5761L9.00941 16.5761C9.136 16.58 9.26169 16.5839 9.38647 16.5873L9.34186 18.8067L10.6762 18.8341L10.7208 16.6381C11.087 16.6531 11.4415 16.6633 11.7877 16.67L11.7426 18.8558L13.0783 18.8829L13.1239 16.6674C15.3721 16.5842 16.9554 16.0505 17.1935 13.9456C17.3856 12.2508 16.6023 11.4768 15.3337 11.1448C16.1162 10.7662 16.6145 10.0812 16.5249 8.92124ZM14.5597 13.6291C14.5294 15.1508 12.1397 15.069 11.0463 15.0316L11.0461 15.0315C10.9478 15.0282 10.8599 15.0252 10.7853 15.0237L10.8454 12.0831C10.9365 12.085 11.0471 12.0846 11.1723 12.0842L11.1724 12.0842C12.2936 12.0806 14.5915 12.0731 14.5597 13.6291ZM11.0918 10.7438C12.0039 10.7773 13.9936 10.8506 14.0221 9.46731C14.0508 8.05255 12.1359 8.0643 11.2007 8.07004C11.0955 8.07068 11.0027 8.07125 10.9264 8.06971L10.8721 10.7367C10.9349 10.738 11.0089 10.7407 11.0918 10.7438Z" fill="white"/>
</svg>
