<svg width="17" height="17" viewBox="0 0 17 17" fill="none" xmlns="http://www.w3.org/2000/svg">
<path d="M4.91333 8.02231C5.87333 9.90898 7.42 11.449 9.30667 12.4156L10.7733 10.949C10.9533 10.769 11.22 10.709 11.4533 10.789C12.2 11.0356 13.0067 11.169 13.8333 11.169C14.2 11.169 14.5 11.469 14.5 11.8356V14.1623C14.5 14.529 14.2 14.829 13.8333 14.829C7.57333 14.829 2.5 9.75565 2.5 3.49565C2.5 3.12898 2.8 2.82898 3.16667 2.82898H5.5C5.86667 2.82898 6.16667 3.12898 6.16667 3.49565C6.16667 4.32898 6.3 5.12898 6.54667 5.87565C6.62 6.10898 6.56667 6.36898 6.38 6.55565L4.91333 8.02231Z" fill="#8C8C8C"/>
</svg>
