<svg width="24" height="25" viewBox="0 0 24 25" fill="none" xmlns="http://www.w3.org/2000/svg">
<path d="M15.5949 7.3076C13.1685 4.88119 9.23449 4.88119 6.80809 7.3076C4.38168 9.73401 4.38168 13.668 6.80809 16.0944C9.23449 18.5208 13.1685 18.5208 15.5949 16.0944C18.0213 13.668 18.0213 9.73401 15.5949 7.3076ZM5.39387 5.89338C8.60133 2.68593 13.8016 2.68593 17.0091 5.89338C19.9772 8.86148 20.1987 13.5361 17.6736 16.7589L21.7995 20.8848C22.19 21.2753 22.19 21.9085 21.7995 22.299C21.4089 22.6895 20.7758 22.6895 20.3852 22.299L16.2594 18.1731C13.0366 20.6982 8.36197 20.4767 5.39387 17.5086C2.18642 14.3012 2.18642 9.10084 5.39387 5.89338Z" fill="#8C8C8C"/>
</svg>
