<svg width="114" height="100" viewBox="0 0 114 100" fill="none" xmlns="http://www.w3.org/2000/svg">
<g clip-path="url(#clip0_334_21045)">
<path d="M8.40625 0.390625C7.46875 0.976562 7 1.85547 7 3.125C7 4.39453 7.46875 5.27344 8.40625 5.85938C8.95312 6.19141 9.40234 6.25 11.1602 6.25H13.25V13.418C13.25 21.1719 13.3672 22.5586 14.3242 25.8789C14.5977 26.8555 15.2812 28.5547 15.8086 29.6875C17.6836 33.6133 18.6992 34.9609 23.582 39.8828L27.3906 43.75L23.582 47.5977C18.6992 52.5391 17.6836 53.8867 15.8086 57.8125C15.2812 58.9453 14.5977 60.6445 14.3242 61.6211C13.3672 64.9414 13.25 66.3281 13.25 74.0625V81.25H11.1602C9.40234 81.25 8.95312 81.3086 8.40625 81.6406C7.46875 82.2266 7 83.1055 7 84.375C7 85.6445 7.46875 86.5234 8.40625 87.1094C9.03125 87.5 9.44141 87.5 28.6992 87.5H48.3672L47.4102 85.2539C46.8828 84.0039 46.3555 82.5977 46.2383 82.1289L46.0234 81.25H32.7617H19.5V75.918C19.5195 67.2266 19.9297 64.2773 21.6289 60.6445C23.0352 57.6562 24.168 56.25 29.5586 50.7812C32.3906 47.9297 34.793 45.4102 34.9102 45.1758C35.1836 44.6289 35.1836 42.8711 34.9102 42.3242C34.793 42.0898 32.3906 39.5703 29.5586 36.7188C24.168 31.25 23.0352 29.8438 21.6289 26.8555C19.9297 23.2227 19.5195 20.2734 19.5 11.5625V6.25H38.25H57V11.5625C57 20.1953 56.5703 23.2422 54.8711 26.875C53.5039 29.7852 52.3125 31.25 46.9219 36.7188C44.1094 39.5703 41.707 42.0898 41.5898 42.3242C41.3164 42.8711 41.3164 44.6289 41.5898 45.1758C41.8633 45.7227 49.6172 53.5156 49.8711 53.5156C49.9688 53.5156 50.4375 52.9492 50.8867 52.2852C51.3359 51.6211 52.1953 50.5078 52.7812 49.8047L53.8555 48.5352L51.4727 46.1523L49.1094 43.7695L53.1133 39.707C57.5469 35.1953 58.8945 33.418 60.6133 29.8242C61.1992 28.6328 61.9023 26.8555 62.1758 25.8789C63.1328 22.5586 63.25 21.1719 63.25 13.418V6.25H65.3594C67.0977 6.25 67.5469 6.19141 68.0938 5.85938C69.0312 5.27344 69.5 4.39453 69.5 3.125C69.5 1.85547 69.0312 0.976562 68.0938 0.390625C67.4492 0 67.0391 0 38.25 0C9.46094 0 9.05078 0 8.40625 0.390625Z" fill="#D8D8D8"/>
<path d="M25.75 16.2695C25.75 20.7227 26.0039 22.1094 27.3906 24.9023C28.4258 26.9922 29.8711 28.6914 34.8125 33.5938L38.25 37.0117L41.6875 33.5938C46.6289 28.6914 48.0742 26.9922 49.1094 24.9023C50.4961 22.1094 50.75 20.7227 50.75 16.2695V12.5H38.25H25.75V16.2695Z" fill="#1856CD" fill-opacity="0.1"/>
<path d="M74.1875 44.0234C68.3086 45.0586 63.1133 47.7734 58.9531 51.9531C54.9883 55.9179 52.3906 60.7031 51.1992 66.25C50.6914 68.5742 50.6914 75.1757 51.1992 77.5C53.6016 88.6718 62.0781 97.1484 73.2695 99.5507C75.5547 100.059 82.1953 100.039 84.5 99.5507C95.6719 97.1484 104.148 88.6718 106.551 77.5C107.059 75.1757 107.059 68.5742 106.551 66.25C105.359 60.7031 102.762 55.9179 98.7969 51.9531C94.9102 48.0664 90.1055 45.4296 84.7344 44.2382C82.7617 43.789 76.2383 43.6718 74.1875 44.0234ZM80.4375 56.8945C80.8086 57.1289 81.2773 57.6367 81.4922 58.0078C81.8828 58.6523 81.9023 59.0429 81.9609 64.7461L82.0195 70.8007L86.375 75.1953C88.7773 77.6172 90.8477 79.7851 90.9648 80.0195C91.3164 80.7031 91.2188 82.0507 90.7891 82.7734C90.0078 84.0429 88.1914 84.5703 86.9219 83.9062C85.9844 83.3984 76.1797 73.3984 76.0039 72.7539C75.9258 72.4218 75.8477 69.1406 75.8477 65.4297C75.8477 58.9843 75.8672 58.6523 76.2578 58.0078C77.1562 56.4843 79.0703 55.957 80.4375 56.8945Z" fill="#1856CD"/>
<path d="M33.8359 54.9219C29.0898 59.7266 28.25 60.7422 27.2344 62.8906C26.0039 65.4688 25.75 66.9336 25.75 71.2305V75H35.2031H44.6367L44.7539 71.0352C44.8711 66.7578 45.1445 64.9805 46.2578 61.6016C46.5898 60.625 46.8438 59.668 46.8438 59.4727C46.8438 59.1602 38.543 50.5859 38.25 50.5859C38.1914 50.5859 36.1992 52.5391 33.8359 54.9219Z" fill="#AFAFAF"/>
</g>
<defs>
<clipPath id="clip0_334_21045">
<rect width="100" height="100" fill="white" transform="translate(7)"/>
</clipPath>
</defs>
</svg>
