<svg width="44" height="44" viewBox="0 0 44 44" fill="none" xmlns="http://www.w3.org/2000/svg">
<rect width="44" height="44" rx="22" fill="#F5F7FA"/>
<path d="M25.7645 16.2235C25.7645 18.3027 24.079 19.9882 21.9998 19.9882C19.9206 19.9882 18.2351 18.3027 18.2351 16.2235C18.2351 14.1443 19.9206 12.4588 21.9998 12.4588C24.079 12.4588 25.7645 14.1443 25.7645 16.2235Z" fill="#AAAAAA" stroke="#AAAAAA" stroke-width="1.88235"/>
<path d="M29.5588 27.3059C29.5588 28.2818 28.9053 29.3192 27.5209 30.1623C26.1531 30.9953 24.2035 31.5412 22 31.5412C19.7965 31.5412 17.8469 30.9953 16.4791 30.1623C15.0947 29.3192 14.4412 28.2818 14.4412 27.3059C14.4412 26.33 15.0947 25.2925 16.4791 24.4494C17.8469 23.6164 19.7965 23.0706 22 23.0706C24.2035 23.0706 26.1531 23.6164 27.5209 24.4494C28.9053 25.2925 29.5588 26.33 29.5588 27.3059Z" fill="#AAAAAA" stroke="#AAAAAA" stroke-width="1.88235"/>
</svg>
