<svg width="40" height="40" viewBox="0 0 40 40" fill="none" xmlns="http://www.w3.org/2000/svg">
<rect width="40" height="40" rx="10" fill="white"/>
<path fill-rule="evenodd" clip-rule="evenodd" d="M11.2836 28.8505L14.8526 27.9143L15.1969 28.1187C16.6447 28.9778 18.3043 29.4324 19.9964 29.4331H20.0002C25.1975 29.4331 29.4276 25.2029 29.4297 20.0034C29.4307 17.4838 28.4508 15.1146 26.6705 13.3322C24.8901 11.5498 22.5225 10.5678 20.0039 10.5669C14.8025 10.5669 10.5724 14.7967 10.5703 19.9958C10.5696 21.7775 11.0681 23.5128 12.012 25.0141L12.2362 25.3708L11.2836 28.8505ZM25.3281 22.4467C25.5258 22.5422 25.6593 22.6067 25.7163 22.7019C25.7871 22.8201 25.7871 23.3877 25.551 24.05C25.3147 24.7121 24.1822 25.3165 23.6375 25.3978C23.1492 25.4708 22.5311 25.5013 21.8521 25.2855C21.4403 25.1549 20.9124 24.9804 20.236 24.6883C17.5785 23.5408 15.7825 20.9651 15.4431 20.4783C15.4193 20.4442 15.4027 20.4203 15.3934 20.408L15.3911 20.4049C15.2411 20.2047 14.2359 18.8636 14.2359 17.4755C14.2359 16.1697 14.8773 15.4853 15.1726 15.1703C15.1928 15.1487 15.2114 15.1288 15.2281 15.1106C15.4879 14.8268 15.795 14.7559 15.984 14.7559C16.173 14.7559 16.3621 14.7576 16.5273 14.7659C16.5477 14.7669 16.5689 14.7668 16.5908 14.7667C16.756 14.7657 16.9619 14.7645 17.1651 15.2525C17.2433 15.4403 17.3576 15.7188 17.4783 16.0124C17.7222 16.6063 17.9917 17.2624 18.0391 17.3574C18.11 17.4993 18.1572 17.6648 18.0628 17.854C18.0486 17.8824 18.0354 17.9092 18.0229 17.9348C17.9519 18.0797 17.8997 18.1863 17.7793 18.3269C17.7319 18.3822 17.683 18.4418 17.634 18.5014C17.5365 18.6202 17.439 18.739 17.3541 18.8236C17.2121 18.9649 17.0644 19.1183 17.2298 19.4021C17.3951 19.6859 17.9641 20.6141 18.8068 21.3658C19.7127 22.1739 20.5 22.5154 20.8991 22.6885C20.977 22.7223 21.0401 22.7497 21.0865 22.7729C21.3698 22.9148 21.5352 22.891 21.7006 22.7019C21.8659 22.5127 22.4092 21.8741 22.5982 21.5904C22.7871 21.3067 22.9762 21.3539 23.236 21.4485C23.4959 21.5432 24.8896 22.2289 25.173 22.3708C25.2284 22.3985 25.2801 22.4235 25.3281 22.4467Z" fill="#1856CD"/>
</svg>
